<?xml version="1.0" encoding="utf-8"?>
<!-- Generator: Adobe Illustrator 22.1.0, SVG Export Plug-In . SVG Version: 6.00 Build 0)  -->
<svg version="1.1" id="Layer_1" xmlns="http://www.w3.org/2000/svg" xmlns:xlink="http://www.w3.org/1999/xlink" x="0px" y="0px"
	 viewBox="0 0 28.8 80" style="enable-background:new 0 0 28.8 80;" xml:space="preserve">
<style type="text/css">
	.st0{fill:url(#SVGID_1_);}
	.st1{fill:#F1ECDF;}
</style>
<g>
	<g>
		
			<linearGradient id="SVGID_1_" gradientUnits="userSpaceOnUse" x1="14.7" y1="961" x2="14.7" y2="1030.9" gradientTransform="matrix(1 0 0 1 0 -954)">
			<stop  offset="0.1343" style="stop-color:#FFAE03"/>
			<stop  offset="0.6435" style="stop-color:#AC8500"/>
		</linearGradient>
		<path class="st0" d="M21.3,27.1c0,0,4.6,2.1,4.6,12.1s0,37.7,0,37.7H3.5c0,0,0-29.9,0-39.6s4.1-10,4.1-10L10.5,7h7.9L21.3,27.1z"
			/>
	</g>
	<rect x="3.5" y="40.4" class="st1" width="22.3" height="26.4"/>
	<g>
		<path d="M22.7,27.3L19.8,7.9c0.2,0,0.4-0.1,0.5-0.3c0.2-0.2,0.3-0.4,0.2-0.7l-0.4-2.8c-0.1-0.9-0.9-1.5-1.7-1.5H11
			c-0.9,0-1.6,0.6-1.7,1.5L9,7c0,0.3,0.1,0.5,0.2,0.7C9.4,7.9,9.6,8,9.8,8L6.7,27.3c-2.7,2.2-4.2,5.6-4.2,9.3v37.7
			c0,2.1,1.7,3.8,3.8,3.8H23c2.1,0,3.8-1.7,3.8-3.8V36.6C26.9,32.9,25.3,29.6,22.7,27.3z M4.3,40.8h20.9v25.4H4.3V40.8z M10.9,26.9
			c0.4-0.2,0.7-0.7,0.5-1.2c-0.3-0.4-0.8-0.6-1.2-0.4c-0.5,0.2-1,0.4-1.4,0.7l2.8-18h6.3l2.8,18c-0.4-0.2-0.7-0.4-1.2-0.5
			c-0.4-0.2-1,0-1.2,0.4s0,1,0.4,1.2c3.8,1.7,6.3,5.4,6.3,9.6v2.5H4.3v-2.5C4.3,32.3,6.8,28.5,10.9,26.9z M23.1,76.3H6.3
			c-1.2,0-2.1-0.9-2.1-2.1v-6.3h20.9v6.3C25.1,75.4,24.2,76.3,23.1,76.3z"/>
		<path class="st1" d="M6.6,36C6.7,36.1,6.7,36.1,6.6,36c0.5,0,0.9-0.4,1-0.8c0-0.2,0-0.4,0.1-0.6c0.1-0.4-0.2-1-0.7-1.1
			c-0.4-0.1-1,0.2-1.1,0.7c-0.1,0.3-0.1,0.5-0.1,0.9C5.8,35.5,6.1,36,6.6,36z"/>
		<path class="st1" d="M8.1,32.7c0.3,0,0.5-0.1,0.7-0.3c0.9-1.1,2-1.6,2-1.6c0.4-0.3,0.6-0.8,0.4-1.2c-0.3-0.4-0.8-0.6-1.2-0.4
			c-0.1,0-1.4,0.7-2.5,2.1c-0.4,0.4-0.3,0.9,0.1,1.2C7.7,32.6,7.9,32.7,8.1,32.7z"/>
	</g>
</g>
<g>
	<path d="M11.2,52.7H6.9v-10H11c2.1,0,3.2,1.2,3.2,2.9c0,1.1-0.8,1.8-1.1,2c0.4,0.3,1.2,0.8,1.2,2.2C14.3,51.7,13,52.7,11.2,52.7z
		 M10.9,44.9H9.3v1.6h1.5c0.7,0,0.9-0.4,0.9-0.8C11.7,45.4,11.5,44.9,10.9,44.9z M11,48.8H9.3v1.8H11c0.7,0,0.9-0.5,0.9-0.9
		C11.9,49.2,11.7,48.8,11,48.8z"/>
	<path d="M16,52.7v-10h6.8v2.2h-4.3v1.7h3.7v2.2h-3.7v1.8h4.3v2.2H16z"/>
	<path d="M6.9,64.7v-10h6.8v2.2H9.3v1.7H13v2.2H9.3v1.8h4.3v2.2H6.9z"/>
	<path d="M20.4,64.7L18.7,61h-0.8v3.7h-2.5v-10h4c2.2,0,3.4,1.6,3.4,3.2c0,1.4-0.8,2.2-1.6,2.6l2.2,4.2H20.4z M19.2,56.9h-1.4v2h1.4
		c0.7,0,1.1-0.5,1.1-1S19.9,56.9,19.2,56.9z"/>
</g>
</svg>
