<?xml version="1.0" encoding="utf-8"?>
<!-- Generator: Adobe Illustrator 22.1.0, SVG Export Plug-In . SVG Version: 6.00 Build 0)  -->
<svg version="1.1" id="Layer_1" xmlns="http://www.w3.org/2000/svg" xmlns:xlink="http://www.w3.org/1999/xlink" x="0px" y="0px"
	 viewBox="0 0 52.8 23.4" style="enable-background:new 0 0 52.8 23.4;" xml:space="preserve">
<style type="text/css">
	.st0{fill:#FFFFFF;}
	.st1{fill:url(#SVGID_1_);}
	.st2{fill:#F1ECDF;}
</style>
<g>
	<g>
		<path class="st0" d="M18.8,22.2H8.9v-21h9.6c4.3,0,6.5,2.2,6.5,5.5c0,2.3-1.2,3.6-2.9,4c2.8,0.9,3.6,3.3,3.6,5.3
			C25.8,19.2,23.8,22.2,18.8,22.2z M16.9,5.4h-2v4h1.5c1.8,0,2.5-0.6,2.5-2.2C18.9,6.3,18.5,5.4,16.9,5.4z M16.7,13.5h-1.9v4.4h2.5
			c1.6,0,2.3-0.9,2.3-2.1C19.6,14,18.9,13.5,16.7,13.5z"/>
		<path class="st0" d="M31.1,22.2h-6.2h-6.1l5.5-21h7.4l5.5,21H31.1z"/>
		<path class="st0" d="M45.4,22.2l-4-7.9h-1.8v7.9h-6v-21h10.9c5.3,0,6.4,2.5,6.4,6.2c0,2.7-1.4,5-4,5.8l4.8,9H45.4z M42.4,5.7h-2.8
			v4.1h3.1c1.7,0,2.2-0.8,2.2-2.4C44.8,5.9,44,5.7,42.4,5.7z"/>
	</g>
	<g>
		<g>
			
				<linearGradient id="SVGID_1_" gradientUnits="userSpaceOnUse" x1="28.05" y1="957.123" x2="28.05" y2="973.6488" gradientTransform="matrix(1 0 0 1 0 -951.623)">
				<stop  offset="0.1343" style="stop-color:#FFAE03"/>
				<stop  offset="0.6435" style="stop-color:#AC8500"/>
			</linearGradient>
			<path class="st1" d="M29.6,10.2c0,0,1.1,0.5,1.1,2.9s0,8.9,0,8.9h-5.3c0,0,0-7.1,0-9.3s1-2.4,1-2.4L27,5.5h1.9L29.6,10.2z"/>
		</g>
		<rect x="25.4" y="13.4" class="st2" width="5.3" height="6.2"/>
		<g>
			<path d="M29.9,10.3l-0.7-4.6c0,0,0.1,0,0.1-0.1c0,0,0.1-0.1,0-0.2l-0.1-0.7c0-0.2-0.2-0.4-0.4-0.4H27c-0.2,0-0.4,0.1-0.4,0.4
				l-0.1,0.7c0,0.1,0,0.1,0,0.2l0.1,0.1l-0.7,4.6c-0.6,0.5-1,1.3-1,2.2v8.9c0,0.5,0.4,0.9,0.9,0.9H30c0.5,0,0.9-0.4,0.9-0.9v-8.9
				C30.9,11.6,30.5,10.8,29.9,10.3z M25.5,13.5h4.9v6h-4.9V13.5z M27.1,10.2c0.1,0,0.2-0.2,0.1-0.3S27,9.8,26.9,9.8
				c-0.1,0-0.2,0.1-0.3,0.2l0.7-4.2h1.5l0.7,4.2c-0.1,0-0.2-0.1-0.3-0.1c-0.1,0-0.2,0-0.3,0.1s0,0.2,0.1,0.3
				c0.9,0.4,1.5,1.3,1.5,2.3v0.6h-4.9v-0.6C25.5,11.5,26.2,10.6,27.1,10.2z M30,21.9h-4c-0.3,0-0.5-0.2-0.5-0.5v-1.5h4.9v1.5
				C30.5,21.7,30.3,21.9,30,21.9z"/>
			<path class="st2" d="M26.1,12.3C26.1,12.4,26.1,12.4,26.1,12.3c0.1,0,0.2-0.1,0.2-0.2V12c0-0.1,0-0.2-0.2-0.3
				c-0.1,0-0.2,0-0.3,0.2c0,0.1,0,0.1,0,0.2C25.9,12.2,26,12.3,26.1,12.3z"/>
			<path class="st2" d="M26.5,11.6c0.1,0,0.1,0,0.2-0.1c0.2-0.3,0.5-0.4,0.5-0.4c0.1-0.1,0.1-0.2,0.1-0.3c-0.1-0.1-0.2-0.1-0.3-0.1
				c0,0-0.3,0.2-0.6,0.5c-0.1,0.1-0.1,0.2,0,0.3C26.4,11.5,26.4,11.6,26.5,11.6z"/>
		</g>
	</g>
	<g>
		<path class="st0" d="M2.8,19.9h1.3v-2.3h1.7v2.3H9v2.3H1v-5.7h1.7L2.8,19.9L2.8,19.9z"/>
		<path class="st0" d="M8.9,10.1c0.2,0.3,0.3,0.9,0.3,2.2c0,1,0,1.8-0.3,2.2c-0.5,1.1-2.2,1.2-3.9,1.2c-1.6,0-3.3-0.1-3.9-1.2
			c-0.2-0.4-0.3-1.1-0.3-2.2s0.1-1.8,0.3-2.2C1.7,9.2,3,9,5.1,9C7,9,8.4,9.2,8.9,10.1z M3.7,11.3c-0.9,0.1-1,0.1-1,1.1s0.1,1,1,1.1
			c0.5,0,1.1,0.1,1.4,0.1c0.3,0,0.9,0,1.4-0.1c0.9-0.1,1-0.1,1-1.1s-0.1-1-1-1.1c-0.5,0-1.1-0.1-1.4-0.1C4.8,11.2,4.2,11.2,3.7,11.3
			z"/>
		<path class="st0" d="M8.9,2.3c0.2,0.3,0.3,0.9,0.3,2.2c0,1,0,1.8-0.3,2.2C8.4,7.8,6.7,7.9,5.1,7.9S1.8,7.8,1.2,6.7
			C1,6.3,0.9,5.7,0.9,4.5c0-1.1,0.1-1.8,0.3-2.2C1.7,1.4,3,1.2,5.1,1.2C7,1.2,8.4,1.4,8.9,2.3z M3.7,3.5c-0.9,0.1-1,0.1-1,1.1
			s0.1,1,1,1.1c0.5,0,1.1,0.1,1.4,0.1c0.3,0,0.9,0,1.4-0.1c0.9-0.1,1-0.1,1-1.1s-0.1-1-1-1.1C6,3.5,5.4,3.4,5.1,3.4
			C4.8,3.4,4.2,3.4,3.7,3.5z"/>
	</g>
</g>
<g>
	<path d="M27,16.2h-1.1v-2.5h1c0.5,0,0.8,0.3,0.8,0.7c0,0.3-0.2,0.4-0.3,0.5c0.1,0.1,0.3,0.2,0.3,0.6C27.8,16,27.4,16.2,27,16.2z
		 M26.9,14.3h-0.4v0.4h0.4c0.2,0,0.2-0.1,0.2-0.2C27.1,14.4,27.1,14.3,26.9,14.3z M26.9,15.2h-0.4v0.4h0.4c0.2,0,0.2-0.1,0.2-0.2
		C27.2,15.4,27.1,15.2,26.9,15.2z"/>
	<path d="M28.2,16.2v-2.5h1.7v0.6h-1.1v0.4h0.9v0.6h-0.9v0.4h1.1v0.6H28.2z"/>
	<path d="M25.9,19.3v-2.5h1.7v0.6h-1.1v0.4h0.9v0.6h-0.9v0.4h1.1v0.6H25.9z"/>
	<path d="M29.3,19.3l-0.4-0.9h-0.2v0.9H28v-2.5h1c0.6,0,0.9,0.4,0.9,0.8c0,0.3-0.2,0.6-0.4,0.7l0.5,1.1H29.3z M29,17.3h-0.4v0.5H29
		c0.2,0,0.3-0.1,0.3-0.3C29.3,17.4,29.2,17.3,29,17.3z"/>
</g>
</svg>
